<svg width="31" height="27" viewBox="0 0 31 27" fill="none" xmlns="http://www.w3.org/2000/svg">
<g clip-path="url(#clip0_369_223)">
<path d="M16.7539 26.0621C16.6679 26.0621 16.5859 26.0621 16.5039 26.0501C14.8289 25.9021 12.5099 23.6061 9.6139 19.2181C8.13789 17.0221 7.30649 14.4565 7.21391 11.8121C7.19372 11.2317 7.22249 10.6507 7.2999 10.0751C6.7339 9.49712 5.03991 7.56913 5.51991 5.53113C5.91091 3.86413 8.14291 3.09913 9.95091 2.75113C10.4552 2.65659 10.9766 2.75829 11.4084 3.03545C11.8402 3.3126 12.1498 3.74426 12.2739 4.24213C12.5044 5.69401 12.3647 7.18057 11.8679 8.56413C11.8438 9.55467 12.0052 10.541 12.3439 11.4721C14.4538 12.4471 16.3146 13.8888 17.7859 15.6881C18.4579 13.4001 20.5459 8.15813 25.5349 9.03613C26.4818 9.14192 27.3782 9.51813 28.117 10.1198C28.8558 10.7215 29.4056 11.5232 29.7009 12.4291C30.0333 13.4931 30.1018 14.6219 29.9006 15.7183C29.6994 16.8146 29.2344 17.8455 28.5459 18.7221C26.8209 20.5451 20.1459 26.0611 16.7559 26.0611L16.7539 26.0621ZM10.3199 3.61012C10.2505 3.61079 10.1812 3.61748 10.1129 3.63013C9.09391 3.83013 6.6889 4.42213 6.3849 5.73813C5.9439 7.62013 8.0519 9.57213 8.0709 9.59113C8.12648 9.64161 8.16851 9.70523 8.19314 9.77615C8.21777 9.84708 8.22423 9.92307 8.21191 9.99713C8.11898 10.5924 8.08247 11.195 8.1029 11.7971C8.19121 14.2733 8.97173 16.6751 10.3559 18.7301C12.9789 22.7041 15.2559 25.0471 16.5829 25.1641C19.3899 25.4021 26.0889 20.0221 27.8919 18.1171C28.462 17.3543 28.8453 16.4684 29.0108 15.5305C29.1763 14.5926 29.1195 13.629 28.8449 12.7171C28.5926 11.9689 28.1314 11.3085 27.5158 10.8139C26.9002 10.3193 26.1559 10.0113 25.3709 9.92613C19.9209 8.96613 18.4139 16.8091 18.3979 16.8871C18.3817 16.9783 18.3375 17.0622 18.2714 17.1272C18.2053 17.1921 18.1207 17.2348 18.0292 17.2495C17.9377 17.2641 17.844 17.2499 17.7609 17.2088C17.6779 17.1677 17.6097 17.1017 17.5659 17.0201C15.9419 14.0571 11.8469 12.2381 11.8079 12.2201C11.7031 12.1725 11.6198 12.0877 11.5739 11.9821C11.1369 10.8748 10.9297 9.69008 10.9649 8.50012C10.9655 8.45771 10.9723 8.41561 10.9849 8.37512C11.4532 7.12365 11.5943 5.77338 11.3949 4.45213C11.3365 4.21191 11.1988 3.99836 11.0041 3.84596C10.8095 3.69356 10.5691 3.61119 10.3219 3.61212L10.3199 3.61012Z" fill="black"/>
<path d="M4.47896 9.84514C4.38615 9.84525 4.29562 9.81642 4.21997 9.76265C4.14433 9.70887 4.08734 9.63283 4.05696 9.54513L3.31096 7.40915C3.29167 7.35406 3.28343 7.29571 3.28671 7.23744C3.29 7.17917 3.30475 7.1221 3.33011 7.06953C3.35547 7.01696 3.39094 6.9699 3.4345 6.93106C3.47805 6.89221 3.52884 6.86234 3.58396 6.84314L5.73895 6.08613C5.79499 6.06493 5.85469 6.05508 5.91457 6.05716C5.97445 6.05923 6.0333 6.0732 6.08774 6.09823C6.14217 6.12326 6.19109 6.15886 6.23165 6.20297C6.2722 6.24707 6.30358 6.2988 6.32396 6.35514C6.34371 6.41176 6.35186 6.47176 6.34795 6.5316C6.34403 6.59143 6.32813 6.64986 6.30116 6.70341C6.2742 6.75697 6.23673 6.80456 6.191 6.84333C6.14526 6.88211 6.0922 6.91129 6.03496 6.92913L4.29796 7.53814L4.75096 8.83813L6.54296 8.20614C6.59831 8.18644 6.65699 8.17783 6.71567 8.18081C6.77435 8.1838 6.83187 8.19831 6.88494 8.22352C6.938 8.24873 6.98558 8.28415 7.02497 8.32776C7.06435 8.37136 7.09476 8.42229 7.11446 8.47764C7.13416 8.53299 7.14276 8.59168 7.13977 8.65036C7.13679 8.70903 7.12227 8.76655 7.09706 8.81962C7.07185 8.87269 7.03645 8.92027 6.99285 8.95965C6.94924 8.99903 6.89831 9.02945 6.84296 9.04915L4.62895 9.83014C4.58063 9.84285 4.53093 9.84957 4.48096 9.85014L4.47896 9.84514Z" fill="black"/>
<path d="M11.811 7.29215C11.7056 7.29234 11.6036 7.25517 11.5229 7.18726C11.4423 7.11936 11.3884 7.0251 11.3706 6.92119C11.3529 6.81729 11.3725 6.71046 11.426 6.61965C11.4796 6.52885 11.5635 6.45994 11.663 6.42515L14.298 5.50014L13.845 4.20014L11.99 4.84815C11.8782 4.88701 11.7556 4.87986 11.6491 4.82828C11.5426 4.77671 11.4609 4.68493 11.422 4.57314C11.3832 4.46135 11.3903 4.33872 11.4419 4.2322C11.4935 4.12568 11.5852 4.044 11.697 4.00515L13.973 3.20515C14.0848 3.16607 14.2076 3.17285 14.3144 3.22401C14.4212 3.27516 14.5034 3.36653 14.543 3.47814L15.289 5.61715C15.3083 5.67223 15.3166 5.73058 15.3133 5.78886C15.31 5.84713 15.2952 5.90418 15.2699 5.95675C15.2445 6.00932 15.2091 6.05637 15.1655 6.09522C15.122 6.13407 15.0712 6.16394 15.016 6.18314L11.959 7.25315C11.9129 7.27518 11.8622 7.28613 11.811 7.28515V7.29215Z" fill="black"/>
<path d="M16.114 8.49013C15.8871 8.49044 15.6658 8.41988 15.4809 8.28828C15.2961 8.15669 15.1569 7.97064 15.083 7.75613L13.061 1.93914C12.9669 1.66537 12.9837 1.36561 13.108 1.10413C13.1701 0.974889 13.2574 0.859333 13.3647 0.764211C13.472 0.669089 13.5972 0.596315 13.733 0.550138L15.133 0.0621313C15.2684 0.0148892 15.4117 -0.00520023 15.5549 0.00301107C15.698 0.0112224 15.8382 0.0475779 15.9673 0.10999C16.0964 0.172403 16.2119 0.259654 16.3073 0.36675C16.4026 0.473846 16.4759 0.598687 16.523 0.734136L18.545 6.55114C18.6391 6.82491 18.6222 7.12466 18.498 7.38614C18.4358 7.51538 18.3486 7.63093 18.2413 7.72606C18.1339 7.82118 18.0087 7.89396 17.873 7.94014L16.473 8.42814C16.3579 8.46981 16.2364 8.49079 16.114 8.49013V8.49013ZM15.489 0.897138C15.4665 0.897394 15.4442 0.901444 15.423 0.909131L14.023 1.39714C13.9984 1.40541 13.9758 1.41852 13.9563 1.4357C13.9369 1.45287 13.9212 1.47377 13.91 1.49714C13.8982 1.52053 13.8914 1.54613 13.89 1.57229C13.8886 1.59846 13.8927 1.62463 13.902 1.64914L15.924 7.46613C15.9418 7.51569 15.9786 7.55619 16.0261 7.57885C16.0737 7.6015 16.1282 7.60448 16.178 7.58713L17.578 7.09913C17.603 7.09098 17.6261 7.07782 17.6459 7.06045C17.6657 7.04309 17.6817 7.02187 17.693 6.99811C17.7043 6.97435 17.7107 6.94854 17.7117 6.92224C17.7127 6.89594 17.7084 6.86971 17.699 6.84514L15.677 1.02813C15.6629 0.989668 15.6372 0.956472 15.6036 0.933042C15.57 0.909612 15.53 0.897081 15.489 0.897138V0.897138Z" fill="black"/>
<path d="M3.11297 13.0302C2.88607 13.0305 2.66474 12.9599 2.4799 12.8283C2.29505 12.6967 2.15594 12.5107 2.08198 12.2962L0.0599745 6.47917C-0.0346071 6.20571 -0.017004 5.90592 0.10894 5.64542C0.234884 5.38491 0.458907 5.18489 0.731972 5.08917L2.13198 4.60118C2.40491 4.507 2.70402 4.52484 2.96381 4.6508C3.22361 4.77676 3.42288 5.00057 3.51797 5.27318L5.53997 11.0902C5.63455 11.3636 5.61695 11.6634 5.491 11.9239C5.36506 12.1844 5.14104 12.3845 4.86797 12.4802L3.46798 12.9682C3.3524 13.0079 3.23118 13.0288 3.10897 13.0302H3.11297ZM2.48797 5.43018C2.46545 5.43043 2.44314 5.43448 2.42197 5.44217L1.02198 5.93018C0.996956 5.93833 0.97384 5.95149 0.954063 5.96886C0.934287 5.98622 0.918263 6.00744 0.906944 6.0312C0.895625 6.05496 0.889247 6.08077 0.888222 6.10707C0.887196 6.13337 0.891543 6.1596 0.900978 6.18417L2.92297 12.0012C2.93112 12.0262 2.9443 12.0493 2.96166 12.0691C2.97903 12.0889 3.00023 12.1049 3.02399 12.1162C3.04776 12.1275 3.07358 12.1339 3.09988 12.1349C3.12618 12.1359 3.15241 12.1316 3.17698 12.1222L4.57697 11.6342C4.602 11.626 4.6251 11.6129 4.64487 11.5955C4.66465 11.5781 4.68069 11.5569 4.69201 11.5332C4.70333 11.5094 4.70969 11.4836 4.71072 11.4573C4.71174 11.431 4.70741 11.4047 4.69798 11.3802L2.67597 5.56317C2.66173 5.52505 2.6362 5.49219 2.60279 5.46896C2.56938 5.44573 2.52967 5.43325 2.48898 5.43318L2.48797 5.43018Z" fill="black"/>
</g>
<defs>
<clipPath id="clip0_369_223">
<rect width="30.008" height="26.062" fill="white"/>
</clipPath>
</defs>
</svg>
