<svg width="25" height="24" viewBox="0 0 25 24" fill="none" xmlns="http://www.w3.org/2000/svg">
<path d="M21.5709 11.263V11.679C21.5709 15.142 21.5589 18.604 21.5829 22.066C21.5769 22.3186 21.4787 22.5603 21.3068 22.7456C21.135 22.9309 20.9014 23.047 20.6499 23.072C20.5389 23.079 20.4269 23.078 20.3149 23.078C14.7403 23.078 9.16559 23.078 3.59092 23.078C3.3901 23.0839 3.18918 23.0705 2.99092 23.038C2.40492 22.922 2.30293 22.788 2.30293 22.199C2.30293 18.6857 2.30293 15.1723 2.30293 11.659V11.234C1.94993 11.49 1.65792 11.702 1.36592 11.912C0.901925 12.245 0.541924 12.212 0.227924 11.812C0.147362 11.723 0.0860951 11.6183 0.0479699 11.5045C0.00984467 11.3906 -0.00431045 11.2701 0.00639731 11.1506C0.0171051 11.031 0.0524431 10.9149 0.110188 10.8097C0.167932 10.7044 0.246828 10.6123 0.341923 10.539C1.35792 9.681 2.37526 8.82467 3.39392 7.97C6.01992 5.762 8.64592 3.55367 11.2719 1.345C11.3658 1.2362 11.4819 1.14876 11.6124 1.08853C11.7428 1.02831 11.8847 0.99672 12.0284 0.995867C12.1721 0.995015 12.3143 1.02492 12.4455 1.08359C12.5767 1.14226 12.6938 1.22834 12.7889 1.33602C16.4363 4.38002 20.0843 7.42301 23.7329 10.465C23.8264 10.5245 23.901 10.6095 23.9477 10.7099C23.9945 10.8104 24.0116 10.9222 23.9969 11.032C23.9927 11.103 23.9927 11.1741 23.9969 11.245C23.9899 11.5 24.0689 11.776 23.7549 11.933C23.6036 12.0279 23.4293 12.0796 23.2508 12.0826C23.0723 12.0856 22.8963 12.0397 22.7419 11.95C22.4119 11.75 22.0859 11.544 21.7579 11.342C21.6971 11.3123 21.6347 11.2859 21.5709 11.263V11.263ZM4.01093 21.347H19.5589C19.5649 21.238 19.5749 21.147 19.5749 21.06C19.5749 17.2933 19.5749 13.5267 19.5749 9.76001C19.5792 9.67574 19.5621 9.59176 19.5252 9.51587C19.4884 9.43999 19.4329 9.37467 19.3639 9.32601C17.5966 7.86401 15.8326 6.39735 14.0719 4.92601C13.3479 4.32601 12.6223 3.72401 11.8949 3.12001C11.8199 3.17301 11.7599 3.21001 11.7049 3.25501L8.21993 6.112C6.91993 7.18 5.61993 8.256 4.30193 9.306C4.20215 9.37393 4.12194 9.46684 4.06929 9.57546C4.01665 9.68408 3.99342 9.8046 4.00193 9.92501C4.01126 13.5917 4.01326 17.2583 4.00792 20.925L4.01093 21.347Z" fill="black"/>
</svg>
