<svg width="18" height="22" viewBox="0 0 18 22" fill="none" xmlns="http://www.w3.org/2000/svg">
<path d="M17.2333 1.8998C17.0167 1.68314 16.6917 1.5748 16.3667 1.68314C13.9833 2.2248 11.6 1.68314 9.65001 0.274805C9.32501 0.058138 8.78334 0.058138 8.45834 0.274805C6.40001 1.68314 4.01668 2.2248 1.63334 1.68314C1.09168 1.5748 0.441677 2.00814 0.333344 2.5498C0.333344 2.65814 0.333344 2.65814 0.333344 2.76647V10.8915C0.333344 14.0331 1.85001 16.9581 4.45001 18.7998L8.45834 21.6165C8.78334 21.8331 9.32501 21.8331 9.75834 21.6165L13.7667 18.7998C16.3667 16.9581 17.8833 14.0331 17.8833 10.8915V2.76647C17.6667 2.44147 17.5583 2.11647 17.2333 1.8998ZM12.25 9.91647L8.56668 13.5998C8.13334 14.0331 7.48334 14.0331 7.05001 13.5998L5.31668 11.8665C4.88334 11.4331 4.88334 10.7831 5.31668 10.3498C5.75001 9.91647 6.40001 9.91647 6.83334 10.3498L7.80834 11.3248L10.7333 8.39981C11.1667 7.96647 11.8167 7.96647 12.25 8.39981C12.6833 8.83314 12.6833 9.48314 12.25 9.91647Z" fill="white" style="fill:white;fill-opacity:1;"/>
</svg>
