<svg width="24" height="24" viewBox="0 0 24 24" fill="none" xmlns="http://www.w3.org/2000/svg">
<path d="M13.4901 5.47998C13.8857 5.47998 14.2724 5.36268 14.6013 5.14292C14.9302 4.92316 15.1865 4.6108 15.3379 4.24535C15.4893 3.8799 15.5289 3.47776 15.4517 3.0898C15.3745 2.70184 15.1841 2.34547 14.9044 2.06577C14.6246 1.78606 14.2683 1.59558 13.8803 1.51841C13.4924 1.44124 13.0902 1.48085 12.7248 1.63222C12.3593 1.7836 12.047 2.03994 11.8272 2.36884C11.6074 2.69774 11.4901 3.08442 11.4901 3.47998C11.4917 4.00993 11.7029 4.51772 12.0777 4.89245C12.4524 5.26718 12.9602 5.4784 13.4901 5.47998ZM9.89014 19.38L10.8901 14.98L12.9901 16.98V22.98H14.9901V15.48L12.8901 13.48L13.4901 10.48C14.1763 11.264 15.0218 11.8926 15.9703 12.3237C16.9187 12.7548 17.9483 12.9786 18.9901 12.98V10.98C18.1257 10.9931 17.2731 10.7781 16.5182 10.3568C15.7633 9.93546 15.1328 9.32261 14.6901 8.57998L13.6901 6.97998C13.5129 6.68454 13.2644 6.43823 12.9675 6.26355C12.6705 6.08886 12.3345 5.99137 11.9901 5.97998C11.6901 5.97998 11.4901 6.07998 11.1901 6.07998L5.99014 8.27998V12.98H7.99014V9.57998L9.79014 8.87998L8.19014 16.98L3.29014 15.98L2.89014 17.98L9.89014 19.38Z" fill="white"/>
</svg>
